<svg width="70" height="70" viewBox="0 0 200 200" xmlns="http://www.w3.org/2000/svg">
	<defs>
        <linearGradient id="g1">
            <stop offset="0%" stop-color="#1C9965"/>
            <stop offset="45%" stop-color="#58AF77"/>
            <stop offset="75%" stop-color="#A2C53C"/>
        </linearGradient>
        <linearGradient id="g2">
            <stop offset="0%" stop-color="#27A960"/>
            <stop offset="75%" stop-color="#91C054"/>
        </linearGradient>
        <linearGradient id="g3">
            <stop offset="0%" stop-color="#E77E15"/>
            <stop offset="75%" stop-color="#F8C312"/>
        </linearGradient>
        <linearGradient id="g4">
            <stop offset="0%" stop-color="#E84337"/>
            <stop offset="75%" stop-color="#EE8631"/>
        </linearGradient>
    </defs>

  <path d="M 100 20 A 80 80 0 0 0 100 180 A 80 80 0 0 0 100 20" stroke="url(#g1)" fill="transparent" stroke-width="20">
		<animateTransform attributeName="transform" type="rotate" from="0 100 100"  to="360 100 100" dur="2.0s" repeatCount="indefinite"/>
  </path>
  <path d="M 100 160 A 60 60 0 0 0 100 40 A 60 60 0 0 0 100 160" stroke="url(#g2)" fill="transparent" stroke-width="20">
		<animateTransform attributeName="transform" type="rotate" from="0 100 100"  to="360 100 100" dur="1.5s" repeatCount="indefinite" begin="0.1s"/>
  </path>
  <path d="M 100 140 A 40 40 0 0 0 100 60 A 40 40 0 0 0 100 140" stroke="url(#g3)" fill="transparent" stroke-width="20">
		<animateTransform attributeName="transform" type="rotate" from="0 100 100"  to="360 100 100" dur="1.0s" repeatCount="indefinite" begin="0.2s"/>
  </path>
  <path d="M 100 80 A 20 20 0 0 0 100 120 A 20 20 0 0 0 100 80" stroke="url(#g4)" fill="transparent" stroke-width="20">
		<animateTransform attributeName="transform" type="rotate" from="0 100 100"  to="360 100 100" dur="0.5s" repeatCount="indefinite" begin="0.3s"/>
  </path>
</svg>
